<svg width="96" height="643" viewBox="0 0 96 643" fill="none" xmlns="http://www.w3.org/2000/svg">
<path d="M49.8144 642.263V638.548H47.9991C23.6668 638.548 3.87278 618.762 3.87278 594.448C3.87278 570.134 23.6668 550.355 47.9991 550.355H49.8144V481.607C75.3084 480.649 95.7559 459.622 95.7559 433.915C95.7559 408.208 75.3084 387.188 49.8144 386.23V319.847H47.9991C23.6668 319.847 3.87278 300.068 3.87278 275.754C3.87278 251.44 23.6668 231.654 47.9991 231.654H49.8144V162.906C75.3084 161.948 95.7559 140.928 95.7559 115.221C95.7559 89.5146 75.3084 68.4874 49.8144 67.5297V2.07565C49.8144 1.07436 49.0011 0.261719 47.9991 0.261719C46.997 0.261719 46.1838 1.07436 46.1838 2.07565V71.1213H47.9991C72.3313 71.1213 92.1253 90.9077 92.1253 115.221C92.1253 139.535 72.3313 159.314 47.9991 159.314H46.1838V228.062C20.6897 229.02 0.242188 250.047 0.242188 275.754C0.242188 301.461 20.6897 322.489 46.1838 323.439V389.822H47.9991C72.3313 389.822 92.1253 409.601 92.1253 433.915C92.1253 458.229 72.3313 478.016 47.9991 478.016H46.1838V546.763C20.6897 547.721 0.242188 568.741 0.242188 594.448C0.242188 620.155 20.6897 641.183 46.1838 642.141V642.263H49.8144Z" fill="#F5F5F5"/>
<g clip-path="url(#clip0_2424_21)">
<path d="M44.5 85C46.436 85 48 86.5641 48 88.5V100.75H41V88.5C41 86.5641 42.564 85 44.5 85ZM30.5 92C30.5 90.0641 32.0641 88.5 34 88.5C35.9359 88.5 37.5 90.0641 37.5 92V100.75H30.5V92ZM51.5 92C51.5 90.0641 53.064 88.5 55 88.5C56.936 88.5 58.5 90.0641 58.5 92V102.5C58.5 104.436 56.936 106 55 106C53.064 106 51.5 104.436 51.5 102.5V92ZM62 99C62 97.064 63.564 95.5 65.5 95.5C67.436 95.5 69 97.064 69 99V106C69 107.936 67.436 109.5 65.5 109.5C63.564 109.5 62 107.936 62 106V99ZM51.5 108.625V108.559C52.5282 109.15 53.7203 109.5 55 109.5C56.4437 109.5 57.7782 109.062 58.8937 108.319C59.8453 111.042 62.4485 113 65.5 113C66.7797 113 67.9719 112.661 69 112.059V113C69 118.72 66.2547 123.806 62 127V137.5C62 139.436 60.436 141 58.5 141H41C39.064 141 37.5 139.436 37.5 137.5V128.925C35.6078 128.061 33.8687 126.869 32.3703 125.37L31.1016 124.102C28.4766 121.477 27 117.911 27 114.203V111.25C27 107.389 30.1391 104.25 34 104.25H43.625C46.0422 104.25 48 106.208 48 108.625C48 111.042 46.0422 113 43.625 113H37.5C36.5375 113 35.75 113.787 35.75 114.75C35.75 115.712 36.5375 116.5 37.5 116.5H43.625C47.9782 116.5 51.5 112.978 51.5 108.625Z" fill="#0B0A0C"/>
</g>
<mask id="mask0_2424_21" style="mask-type:luminance" maskUnits="userSpaceOnUse" x="27" y="255" width="42" height="42">
<path d="M68.5 255H27V296.5H68.5V255Z" fill="white"/>
</mask>
<g mask="url(#mask0_2424_21)">
<path d="M47.75 296.5C59.2111 296.5 68.5 287.211 68.5 275.75C68.5 264.289 59.2111 255 47.75 255C36.2889 255 27 264.289 27 275.75C27 287.211 36.2889 296.5 47.75 296.5ZM47.75 265.375C48.828 265.375 49.6953 266.242 49.6953 267.32V276.398C49.6953 277.476 48.828 278.344 47.75 278.344C46.672 278.344 45.8047 277.476 45.8047 276.398V267.32C45.8047 266.242 46.672 265.375 47.75 265.375ZM50.3437 283.531C50.3437 284.966 49.1847 286.125 47.75 286.125C46.3153 286.125 45.1562 284.966 45.1562 283.531C45.1562 282.097 46.3153 280.937 47.75 280.937C49.1847 280.937 50.3437 282.097 50.3437 283.531Z" fill="#0B0A0C"/>
</g>
<path d="M30.9047 436.233L45.7277 450.104C46.343 450.679 47.1551 451 48 451C48.8449 451 49.6571 450.679 50.2723 450.104L65.0953 436.233C67.5891 433.906 69 430.642 69 427.23V426.753C69 421.006 64.8574 416.106 59.2055 415.16C55.4648 414.535 51.6586 415.76 48.9844 418.441L48 419.427L47.0156 418.441C44.3414 415.76 40.5352 414.535 36.7946 415.16C31.1426 416.106 27 421.006 27 426.753V427.23C27 430.642 28.4109 433.906 30.9047 436.233Z" fill="#0B0A0C"/>
<mask id="mask1_2424_21" style="mask-type:luminance" maskUnits="userSpaceOnUse" x="26" y="569" width="42" height="48">
<path d="M68 569H26V616.619H68V569Z" fill="white"/>
</mask>
<g mask="url(#mask1_2424_21)">
<path d="M57.5 573.464C57.5 571 55.4844 569 53.0001 569C50.5156 569 48.5 571 48.5 573.464C48.5 575.929 50.5156 577.929 53.0001 577.929C55.4844 577.929 57.5 575.929 57.5 573.464ZM39.2844 585.323C40.2125 584.402 41.4781 583.881 42.8 583.881C42.9781 583.881 43.1562 583.89 43.325 583.909L40.4 592.624C39.5281 595.228 40.5594 598.092 42.9125 599.552L50.9938 604.565L48.6126 612.824C48.1531 614.406 49.0813 616.052 50.675 616.507C52.2687 616.963 53.9281 616.042 54.3876 614.461L57.0781 605.124C57.6312 603.208 56.8343 601.161 55.1375 600.11L49.8125 596.809L52.7095 589.145L53.1874 590.289C54.5938 593.619 57.8656 595.786 61.5032 595.786H63.4999C65.1593 595.786 66.4999 594.456 66.4999 592.81C66.4999 591.163 65.1593 589.833 63.4999 589.833H61.5032C60.2938 589.833 59.1968 589.108 58.7375 588.001L58.1468 586.606C56.7782 583.342 54.0125 580.849 50.6 579.807L46.0344 578.412C44.9937 578.096 43.9062 577.929 42.8094 577.929C39.9031 577.929 37.1094 579.073 35.0563 581.119L32.8812 583.267C31.7094 584.43 31.7094 586.318 32.8812 587.48C34.0531 588.643 35.9563 588.643 37.1281 587.48L39.2938 585.332L39.2844 585.323ZM36.05 601.738H30.5C28.8406 601.738 27.5 603.068 27.5 604.714C27.5 606.36 28.8406 607.69 30.5 607.69H37.025C38.8062 607.69 40.4187 606.649 41.1406 605.04L42.2187 602.631L41.3281 602.073C39.6875 601.059 38.4688 599.58 37.775 597.897L36.05 601.738Z" fill="#0B0A0C"/>
</g>
<defs>
<clipPath id="clip0_2424_21">
<rect width="42" height="56" fill="white" transform="translate(27 85)"/>
</clipPath>
</defs>
</svg>
